<svg id="visual" viewBox="0 0 960 540" width="960" height="540" xmlns="http://www.w3.org/2000/svg" xmlns:xlink="http://www.w3.org/1999/xlink" version="1.1"><rect x="0" y="0" width="960" height="540" fill="#001a27"></rect><path d="M0 375L22.8 378.3C45.7 381.7 91.3 388.3 137 382.8C182.7 377.3 228.3 359.7 274 360.2C319.7 360.7 365.3 379.3 411.2 385C457 390.7 503 383.3 548.8 379.3C594.7 375.3 640.3 374.7 686 380.7C731.7 386.7 777.3 399.3 823 406.5C868.7 413.7 914.3 415.3 937.2 416.2L960 417L960 541L937.2 541C914.3 541 868.7 541 823 541C777.3 541 731.7 541 686 541C640.3 541 594.7 541 548.8 541C503 541 457 541 411.2 541C365.3 541 319.7 541 274 541C228.3 541 182.7 541 137 541C91.3 541 45.7 541 22.8 541L0 541Z" fill="#00327e" stroke-linecap="round" stroke-linejoin="miter"></path></svg>