<svg id="visual" viewBox="0 0 540 960" width="540" height="960" xmlns="http://www.w3.org/2000/svg" xmlns:xlink="http://www.w3.org/1999/xlink" version="1.1"><rect x="0" y="0" width="540" height="960" fill="#001a27"></rect><path d="M0 667L12.8 673C25.7 679 51.3 691 77 681.3C102.7 671.7 128.3 640.3 154 641.2C179.7 642 205.3 675 231.2 684.8C257 694.7 283 681.3 308.8 674.3C334.7 667.3 360.3 666.7 386 677.7C411.7 688.7 437.3 711.3 463 723.8C488.7 736.3 514.3 738.7 527.2 739.8L540 741L540 961L527.2 961C514.3 961 488.7 961 463 961C437.3 961 411.7 961 386 961C360.3 961 334.7 961 308.8 961C283 961 257 961 231.2 961C205.3 961 179.7 961 154 961C128.3 961 102.7 961 77 961C51.3 961 25.7 961 12.8 961L0 961Z" fill="#00327e" stroke-linecap="round" stroke-linejoin="miter"></path></svg>